<svg xmlns="http://www.w3.org/2000/svg" xmlns:xlink="http://www.w3.org/1999/xlink" viewBox="0 0 512 512"><defs><style>.cls-1{fill:url(#New_Gradient_Swatch_2);}.cls-2{fill:#fff;}</style><linearGradient id="New_Gradient_Swatch_2" x1="256.97" y1="4.84" x2="255" y2="516.83" gradientUnits="userSpaceOnUse"><stop offset="0" stop-color="#00b9f2"/><stop offset="0.1" stop-color="#00b1ec"/><stop offset="1" stop-color="#0069b5"/></linearGradient></defs><title>Artboard 1</title><g id="Background"><rect class="cls-1" width="512" height="512"/></g><g id="Logo"><path class="cls-2" d="M390.06,164.26h7.63A3.32,3.32,0,0,0,401,161V122.39a3.32,3.32,0,0,0-3.32-3.32h-7.63a3.32,3.32,0,0,0-3.31,3.32V161A3.31,3.31,0,0,0,390.06,164.26Z"/><path class="cls-2" d="M458.45,143.75H405.83v17.1a8.23,8.23,0,0,1-8.24,8.23h-7.43a8.23,8.23,0,0,1-8.23-8.23v-17.1h-250v17a8.24,8.24,0,0,1-8.24,8.24h-7.43a8.24,8.24,0,0,1-8.23-8.24v-17H53.55a9,9,0,0,0-9,9V384a9,9,0,0,0,9,9h404.9a9,9,0,0,0,9-9V152.79A9,9,0,0,0,458.45,143.75ZM182.57,383.46l-123.72-.1a4.7,4.7,0,0,1-4.7-4.7V190l128.42.1Zm137.3,0H192.21V190.07H319.87Zm138-4.81a4.7,4.7,0,0,1-4.7,4.7l-123.64.11V190.08L457.85,190Z"/><rect class="cls-2" x="112.8" y="119" width="14.26" height="45.19" rx="3.31"/><path class="cls-2" d="M168.23,323.17V239.85c0-16-11.09-27.14-27.14-27.14H69.42v137.6h71.67C157.14,350.31,168.23,339.22,168.23,323.17Zm-27.52-5.35c0,4.2-2.3,6.5-6.5,6.5H96.94V238.7h37.27c4.2,0,6.5,2.3,6.5,6.5Z"/><path class="cls-2" d="M234.6,350.8h42.8c16.06,0,27.14-11.08,27.14-27.13V298.82c0-15.29-12.61-24.27-27.52-27.52l-35.54-7.64c-4.21-1-6.5-2.29-6.5-6.5v-13c0-4.21,2.29-6.5,6.5-6.5H269c4.2,0,6.49,2.29,6.49,6.5v10.7h26.76V238.82c0-16.06-11.09-27.14-27.14-27.14H234.6c-16.06,0-27.14,11.08-27.14,27.14v23.31c0,15.29,12.61,24.27,27.52,27.52l35.54,7.64c4.21,1,6.5,2.3,6.5,6.5v14.53c0,4.2-2.29,6.49-6.5,6.49H240.71c-4.2,0-6.5-2.29-6.5-6.49V306.08H207.46v17.59C207.46,339.72,218.54,350.8,234.6,350.8Z"/><path class="cls-2" d="M370.54,350.8h9.75v23.7h27.52V350.8h9.55c16.06,0,27.14-11.08,27.14-27.13V238.82c0-16.06-11.08-27.14-27.14-27.14H370.54c-16.05,0-27.13,11.08-27.13,27.14v84.85C343.41,339.72,354.49,350.8,370.54,350.8Zm.39-106.25c0-4.21,2.29-6.5,6.49-6.5h33.06c4.21,0,6.5,2.29,6.5,6.5v73.38c0,4.21-2.29,6.5-6.5,6.5H377.42c-4.2,0-6.49-2.29-6.49-6.5Z"/><rect class="cls-2" x="112.8" y="119" width="14.26" height="45.19" rx="3.31"/></g></svg>